<svg xmlns="http://www.w3.org/2000/svg" xml:space="preserve" fill-rule="evenodd" stroke-linejoin="round" stroke-miterlimit="2" clip-rule="evenodd" viewBox="0 0 1920 1920">
  <path fill="#ffffff" d="M618.73 431.74h-162.1a56.87 56.87 0 0 0-50.86 82.3l501.05 1002.1a56.86 56.86 0 0 0 101.72 0l332.85-665.72 63.63 127.07-294.74 589.5a170.64 170.64 0 0 1-152.6 94.33 170.64 170.64 0 0 1-152.6-94.33L304.03 564.9A170.61 170.61 0 0 1 456.63 318h105.14l56.96 113.75Z"/>
  <path fill="#ffffff" d="M625.05 318h126.9l56.94 113.74h-126.9L625.05 318Zm253.65 0h63.45l56.94 113.74h-63.44L878.7 318ZM675.82 545.47l281.86 563.74 147.3-294.62 137.58-20.82-284.88 569.76-409.03-818.06h127.17Z"/>
  <path fill="#ffffff" d="m1372.75 659.05-234.4 35.44 168.8-166.43L1201.96 318l209.51 107.16 168.8-166.45-38.7 233.88 210.46 109.1-234.4 35.43-38.7 233.89-106.17-211.97Z"/>
</svg>